<?xml version="1.0" standalone="no"?>
<!DOCTYPE svg PUBLIC "-//W3C//DTD SVG 20010904//EN"
 "http://www.w3.org/TR/2001/REC-SVG-20010904/DTD/svg10.dtd">
<svg version="1.0" xmlns="http://www.w3.org/2000/svg"
 width="877.000000pt" height="877.000000pt" viewBox="0 0 877.000000 877.000000"
 preserveAspectRatio="xMidYMid meet">
<metadata>
Created by potrace 1.14, written by Peter Selinger 2001-2017
</metadata>
<g transform="translate(0.000000,877.000000) scale(0.100000,-0.100000)"
fill="#000000" stroke="none">
<path d="M4180 8760 c-1521 -72 -2897 -927 -3629 -2255 -263 -477 -436 -1004
-512 -1559 -27 -192 -38 -726 -20 -929 147 -1635 1162 -3033 2667 -3671 575
-244 1250 -366 1854 -336 699 34 1238 173 1825 470 633 321 1164 778 1586
1365 360 500 626 1124 738 1730 55 297 65 419 65 805 1 288 -3 393 -17 500
-93 723 -313 1332 -691 1910 -537 821 -1363 1452 -2291 1753 -268 87 -585 159
-845 192 -101 12 -551 39 -570 33 -3 0 -75 -4 -160 -8z"/>
</g>
</svg>
